name C:/MyDriveSym/Projects/mobilecap/Data\Session20210910_0002\mocap\ForceDataProcessed\walkingTS3_forces.mot
datacolumns 19
datarows 29
range 1.19950000 1.21350000
endheader 
time	R_ground_force_vx	R_ground_force_vy	R_ground_force_vz	R_ground_force_px	R_ground_force_py	R_ground_force_pz	R_ground_torque_x	R_ground_torque_y	R_ground_torque_z	L_ground_force_vx	L_ground_force_vy	L_ground_force_vz	L_ground_force_px	L_ground_force_py	L_ground_force_pz	L_ground_torque_x	L_ground_torque_y	L_ground_torque_z	
          1.19950000	          0.00000000	          0.00000000	          0.00000000	          1.23833100	          0.00000000	         -0.23246300	          0.00000000	          0.00000000	          0.00000000	         75.68816000	        904.95818500	         49.74936100	          0.93604000	          0.00600000	         -0.43530900	          0.00000000	          2.26116700	          0.00000000	
          1.20000000	          0.00000000	          0.00000000	          0.00000000	          1.23942900	          0.00000000	         -0.23250200	          0.00000000	          0.00000000	          0.00000000	         76.17269800	        905.79755500	         49.88210700	          0.93610800	          0.00600000	         -0.43527200	          0.00000000	          2.27923500	          0.00000000	
          1.20050000	          0.00000000	          0.00000000	          0.00000000	          1.24052600	          0.00000000	         -0.23254100	          0.00000000	          0.00000000	          0.00000000	         76.65845900	        906.63671400	         50.01519000	          0.93617600	          0.00600000	         -0.43523600	          0.00000000	          2.29723500	          0.00000000	
          1.20100000	          0.00000000	          0.00000000	          0.00000000	          1.24162300	          0.00000000	         -0.23258000	          0.00000000	          0.00000000	          0.00000000	         77.14542800	        907.47560300	         50.14859600	          0.93624400	          0.00600000	         -0.43520000	          0.00000000	          2.31516400	          0.00000000	
          1.20150000	          0.00000000	          0.00000000	          0.00000000	          1.24272100	          0.00000000	         -0.23261900	          0.00000000	          0.00000000	          0.00000000	         77.63359300	        908.31415900	         50.28231100	          0.93631200	          0.00600000	         -0.43516400	          0.00000000	          2.33302200	          0.00000000	
          1.20200000	          0.00000000	          0.00000000	          0.00000000	          1.24381800	          0.00000000	         -0.23265800	          0.00000000	          0.00000000	          0.00000000	         78.12293900	        909.15232400	         50.41632100	          0.93638000	          0.00600000	         -0.43512900	          0.00000000	          2.35080800	          0.00000000	
          1.20250000	          0.00000000	          0.00000000	          0.00000000	          1.24491500	          0.00000000	         -0.23269700	          0.00000000	          0.00000000	          0.00000000	         78.61345100	        909.99003400	         50.55061200	          0.93644800	          0.00600000	         -0.43509300	          0.00000000	          2.36851900	          0.00000000	
          1.20300000	          0.00000000	          0.00000000	          0.00000000	          1.24601300	          0.00000000	         -0.23273600	          0.00000000	          0.00000000	          0.00000000	         79.10511600	        910.82723000	         50.68517000	          0.93651600	          0.00600000	         -0.43505900	          0.00000000	          2.38615600	          0.00000000	
          1.20350000	          0.00000000	          0.00000000	          0.00000000	          1.24711000	          0.00000000	         -0.23277500	          0.00000000	          0.00000000	          0.00000000	         79.59792000	        911.66384900	         50.81998000	          0.93658400	          0.00600000	         -0.43502400	          0.00000000	          2.40371600	          0.00000000	
          1.20400000	          0.00000000	          0.00000000	          0.00000000	          1.24820700	          0.00000000	         -0.23281400	          0.00000000	          0.00000000	          0.00000000	         80.09184600	        912.49983000	         50.95502700	          0.93665200	          0.00600000	         -0.43499000	          0.00000000	          2.42119800	          0.00000000	
          1.20450000	          0.00000000	          0.00000000	          0.00000000	          1.24930500	          0.00000000	         -0.23285300	          0.00000000	          0.00000000	          0.00000000	         80.58688100	        913.33511200	         51.09029800	          0.93672000	          0.00600000	         -0.43495600	          0.00000000	          2.43860200	          0.00000000	
          1.20500000	          0.00000000	          0.00000000	          0.00000000	          1.25040200	          0.00000000	         -0.23289200	          0.00000000	          0.00000000	          0.00000000	         81.08300900	        914.16963200	         51.22577700	          0.93678700	          0.00600000	         -0.43492200	          0.00000000	          2.45592600	          0.00000000	
          1.20550000	          0.00000000	          0.00000000	          0.00000000	          1.25149900	          0.00000000	         -0.23293100	          0.00000000	          0.00000000	          0.00000000	         81.58021500	        915.00332800	         51.36145000	          0.93685500	          0.00600000	         -0.43488900	          0.00000000	          2.47316800	          0.00000000	
          1.20600000	          0.00000000	          0.00000000	          0.00000000	          1.25259700	          0.00000000	         -0.23297000	          0.00000000	          0.00000000	          0.00000000	         82.07848400	        915.83613900	         51.49730200	          0.93692300	          0.00600000	         -0.43485500	          0.00000000	          2.49032900	          0.00000000	
          1.20650000	          0.00000000	          0.00000000	          0.00000000	          1.25369400	          0.00000000	         -0.23300900	          0.00000000	          0.00000000	          0.00000000	         82.57780000	        916.66800100	         51.63331700	          0.93699100	          0.00600000	         -0.43482300	          0.00000000	          2.50740600	          0.00000000	
          1.20700000	          0.00000000	          0.00000000	          0.00000000	          1.25479100	          0.00000000	         -0.23304800	          0.00000000	          0.00000000	          0.00000000	         83.07814800	        917.49885200	         51.76948100	          0.93705900	          0.00600000	         -0.43479000	          0.00000000	          2.52439800	          0.00000000	
          1.20750000	          0.00000000	          0.00000000	          0.00000000	          1.25588900	          0.00000000	         -0.23308700	          0.00000000	          0.00000000	          0.00000000	         83.57951200	        918.32862900	         51.90577900	          0.93712700	          0.00600000	         -0.43475800	          0.00000000	          2.54130500	          0.00000000	
          1.20800000	          0.00000000	          0.00000000	          0.00000000	          1.25698600	          0.00000000	         -0.23312600	          0.00000000	          0.00000000	          0.00000000	         84.08187500	        919.15726900	         52.04219400	          0.93719500	          0.00600000	         -0.43472600	          0.00000000	          2.55812500	          0.00000000	
          1.20850000	          0.00000000	          0.00000000	          0.00000000	          1.25808300	          0.00000000	         -0.23316500	          0.00000000	          0.00000000	          0.00000000	         84.58522200	        919.98471000	         52.17871300	          0.93726200	          0.00600000	         -0.43469400	          0.00000000	          2.57485700	          0.00000000	
          1.20900000	          0.00000000	          0.00000000	          0.00000000	          1.25918100	          0.00000000	         -0.23320400	          0.00000000	          0.00000000	          0.00000000	         85.08953600	        920.81088700	         52.31531900	          0.93733000	          0.00600000	         -0.43466200	          0.00000000	          2.59149900	          0.00000000	
          1.20950000	          0.00000000	          0.00000000	          0.00000000	          1.26027800	          0.00000000	         -0.23324300	          0.00000000	          0.00000000	          0.00000000	         85.59480100	        921.63573800	         52.45199700	          0.93739800	          0.00600000	         -0.43463100	          0.00000000	          2.60805200	          0.00000000	
          1.21000000	          0.00000000	          0.00000000	          0.00000000	          1.26137500	          0.00000000	         -0.23328200	          0.00000000	          0.00000000	          0.00000000	         86.10100000	        922.45919900	         52.58873200	          0.93746600	          0.00600000	         -0.43460000	          0.00000000	          2.62451400	          0.00000000	
          1.21050000	          0.00000000	          0.00000000	          0.00000000	          1.26247300	          0.00000000	         -0.23332100	          0.00000000	          0.00000000	          0.00000000	         86.60811700	        923.28120600	         52.72550700	          0.93753400	          0.00600000	         -0.43456900	          0.00000000	          2.64088400	          0.00000000	
          1.21100000	          0.00000000	          0.00000000	          0.00000000	          1.26357000	          0.00000000	         -0.23336100	          0.00000000	          0.00000000	          0.00000000	         87.11613400	        924.10169500	         52.86230700	          0.93760200	          0.00600000	         -0.43453900	          0.00000000	          2.65716000	          0.00000000	
          1.21150000	          0.00000000	          0.00000000	          0.00000000	          1.26466700	          0.00000000	         -0.23340000	          0.00000000	          0.00000000	          0.00000000	         87.62503500	        924.92060300	         52.99911600	          0.93767000	          0.00600000	         -0.43450900	          0.00000000	          2.67334200	          0.00000000	
          1.21200000	          0.00000000	          0.00000000	          0.00000000	          1.26576500	          0.00000000	         -0.23343900	          0.00000000	          0.00000000	          0.00000000	         88.13480300	        925.73786500	         53.13591900	          0.93773800	          0.00600000	         -0.43447900	          0.00000000	          2.68942800	          0.00000000	
          1.21250000	          0.00000000	          0.00000000	          0.00000000	          1.26686200	          0.00000000	         -0.23347800	          0.00000000	          0.00000000	          0.00000000	         88.64542100	        926.55341700	         53.27269900	          0.93780500	          0.00600000	         -0.43444900	          0.00000000	          2.70541900	          0.00000000	
          1.21300000	          0.00000000	          0.00000000	          0.00000000	          1.26795900	          0.00000000	         -0.23351700	          0.00000000	          0.00000000	          0.00000000	         89.15687000	        927.36719500	         53.40944000	          0.93787300	          0.00600000	         -0.43442000	          0.00000000	          2.72131200	          0.00000000	
          1.21350000	          0.00000000	          0.00000000	          0.00000000	          1.26905700	          0.00000000	         -0.23355600	          0.00000000	          0.00000000	          0.00000000	         89.66913300	        928.17913300	         53.54612600	          0.93794100	          0.00600000	         -0.43439000	          0.00000000	          2.73710700	          0.00000000	
